{
  "accessors": [
    {
      "bufferView": 2,
      "componentType": 5126,
      "count": 96,
      "max": [
        0.39857000112533569,
        0.1453000009059906,
        0.1501300036907196
      ],
      "min": [
        -0.39857000112533569,
        -0.085440002381801605,
        -0.12399999797344208
      ],
      "type": "VEC3"
    },
    {
      "bufferView": 2,
      "byteOffset": 1152,
      "componentType": 5126,
      "count": 96,
      "max": [
        0.92229539155960083,
        0.36415606737136841,
        0.93014413118362427
      ],
      "min": [
        -0.92229539155960083,
        -0.99788033962249756,
        -0.91753417253494263
      ],
      "type": "VEC3"
    },
    {
      "bufferView": 3,
      "componentType": 5126,
      "count": 96,
      "max": [
        0.9988095760345459,
        0.99143123626708984,
        0.42889305949211121,
        1
      ],
      "min": [
        -0.99880921840667725,
        -0.99551236629486084,
        -0.51182442903518677,
        -1
      ],
      "type": "VEC4"
    },
    {
      "bufferView": 0,
      "componentType": 5125,
      "count": 516,
      "max": [
        95
      ],
      "min": [
        0
      ],
      "type": "SCALAR"
    },
    {
      "bufferView": 2,
      "byteOffset": 2304,
      "componentType": 5126,
      "count": 250,
      "max": [
        0.45138999819755554,
        -6.2344498634338379,
        4.3608698844909668
      ],
      "min": [
        -0.54493999481201172,
        -6.4257102012634277,
        4.2063798904418945
      ],
      "type": "VEC3"
    },
    {
      "bufferView": 2,
      "byteOffset": 5304,
      "componentType": 5126,
      "count": 250,
      "max": [
        0.91248643398284912,
        0.38567119836807251,
        0.98669081926345825
      ],
      "min": [
        -0.91247034072875977,
        -0.99289661645889282,
        -0.99097472429275513
      ],
      "type": "VEC3"
    },
    {
      "bufferView": 3,
      "byteOffset": 1536,
      "componentType": 5126,
      "count": 250,
      "max": [
        0.98096638917922974,
        0.52341490983963013,
        0.51950585842132568,
        1
      ],
      "min": [
        -0.98114866018295288,
        -0.020557811483740807,
        -0.84630662202835083,
        -1
      ],
      "type": "VEC4"
    },
    {
      "bufferView": 1,
      "componentType": 5126,
      "count": 250,
      "max": [
        0.9998900294303894,
        0.60392999649047852
      ],
      "min": [
        0.00011000000085914508,
        0.00011000000085914508
      ],
      "type": "VEC2"
    },
    {
      "bufferView": 0,
      "byteOffset": 2064,
      "componentType": 5125,
      "count": 1104,
      "max": [
        249
      ],
      "min": [
        0
      ],
      "type": "SCALAR"
    },
    {
      "bufferView": 2,
      "byteOffset": 8304,
      "componentType": 5126,
      "count": 4494,
      "max": [
        0.27685999870300293,
        0.42702001333236694,
        0.19189000129699707
      ],
      "min": [
        -0.279339998960495,
        -0.20675000548362732,
        -0.18342000246047974
      ],
      "type": "VEC3"
    },
    {
      "bufferView": 2,
      "byteOffset": 62232,
      "componentType": 5126,
      "count": 4494,
      "max": [
        0.99999302625656128,
        0.99538052082061768,
        0.99998980760574341
      ],
      "min": [
        -0.99999314546585083,
        -0.99949097633361816,
        -0.99970585107803345
      ],
      "type": "VEC3"
    },
    {
      "bufferView": 3,
      "byteOffset": 5536,
      "componentType": 5126,
      "count": 4494,
      "max": [
        0.9999622106552124,
        0.99987763166427612,
        0.99974513053894043,
        1
      ],
      "min": [
        -0.99997234344482422,
        -0.9996408224105835,
        -0.99983394145965576,
        -1
      ],
      "type": "VEC4"
    },
    {
      "bufferView": 1,
      "byteOffset": 2000,
      "componentType": 5126,
      "count": 4494,
      "max": [
        0.98000001907348633,
        0.99309998750686646
      ],
      "min": [
        0.0068999999202787876,
        0.0068999999202787876
      ],
      "type": "VEC2"
    },
    {
      "bufferView": 0,
      "byteOffset": 6480,
      "componentType": 5125,
      "count": 21360,
      "max": [
        4493
      ],
      "min": [
        0
      ],
      "type": "SCALAR"
    },
    {
      "bufferView": 2,
      "byteOffset": 116160,
      "componentType": 5126,
      "count": 13030,
      "max": [
        2.2609798908233643,
        5.765620231628418,
        6.0900897979736328
      ],
      "min": [
        -1.9163899421691895,
        -8.0688199996948242,
        -0.057539999485015869
      ],
      "type": "VEC3"
    },
    {
      "bufferView": 2,
      "byteOffset": 272520,
      "componentType": 5126,
      "count": 13030,
      "max": [
        0.99994486570358276,
        0.99960726499557495,
        0.9993472695350647
      ],
      "min": [
        -0.99926310777664185,
        -0.99805724620819092,
        -0.99994248151779175
      ],
      "type": "VEC3"
    },
    {
      "bufferView": 3,
      "byteOffset": 77440,
      "componentType": 5126,
      "count": 13030,
      "max": [
        0.99999946355819702,
        0.99939882755279541,
        0.99983656406402588,
        1
      ],
      "min": [
        -0.99990791082382202,
        -0.99991953372955322,
        -0.99978607892990112,
        -1
      ],
      "type": "VEC4"
    },
    {
      "bufferView": 1,
      "byteOffset": 37952,
      "componentType": 5126,
      "count": 13030,
      "max": [
        0.98909002542495728,
        0.9889100193977356
      ],
      "min": [
        0.0096300002187490463,
        0.010750000365078449
      ],
      "type": "VEC2"
    },
    {
      "bufferView": 0,
      "byteOffset": 91920,
      "componentType": 5125,
      "count": 14412,
      "max": [
        13029
      ],
      "min": [
        0
      ],
      "type": "SCALAR"
    },
    {
      "bufferView": 2,
      "byteOffset": 428880,
      "componentType": 5126,
      "count": 113,
      "max": [
        1.496999979019165,
        3.0474700927734375,
        0
      ],
      "min": [
        -1.496999979019165,
        -4.3445301055908203,
        -0.096210002899169922
      ],
      "type": "VEC3"
    },
    {
      "bufferView": 2,
      "byteOffset": 430236,
      "componentType": 5126,
      "count": 113,
      "max": [
        0.77131128311157227,
        0.29424959421157837,
        1
      ],
      "min": [
        -0.91733145713806152,
        -0.69294780492782593,
        -1
      ],
      "type": "VEC3"
    },
    {
      "bufferView": 3,
      "byteOffset": 285920,
      "componentType": 5126,
      "count": 113,
      "max": [
        1,
        0.00017832388402894139,
        0.96806168556213379,
        1
      ],
      "min": [
        -0.79399746656417847,
        -0.79103416204452515,
        -0.62867295742034912,
        -1
      ],
      "type": "VEC4"
    },
    {
      "bufferView": 1,
      "byteOffset": 142192,
      "componentType": 5126,
      "count": 113,
      "max": [
        0.92369997501373291,
        1
      ],
      "min": [
        0,
        0
      ],
      "type": "VEC2"
    },
    {
      "bufferView": 0,
      "byteOffset": 149568,
      "componentType": 5125,
      "count": 192,
      "max": [
        112
      ],
      "min": [
        0
      ],
      "type": "SCALAR"
    },
    {
      "bufferView": 2,
      "byteOffset": 431592,
      "componentType": 5126,
      "count": 385,
      "max": [
        2.0088300704956055,
        0.64297002553939819,
        5.4004697799682617
      ],
      "min": [
        -1.6003799438476562,
        -6.6895899772644043,
        0.87269002199172974
      ],
      "type": "VEC3"
    },
    {
      "bufferView": 2,
      "byteOffset": 436212,
      "componentType": 5126,
      "count": 385,
      "max": [
        0.99876999855041504,
        0.99976032972335815,
        0.98741471767425537
      ],
      "min": [
        -0.99972552061080933,
        -0.9979630708694458,
        -0.99988609552383423
      ],
      "type": "VEC3"
    },
    {
      "bufferView": 3,
      "byteOffset": 287728,
      "componentType": 5126,
      "count": 385,
      "max": [
        0,
        0,
        0,
        1
      ],
      "min": [
        0,
        0,
        0,
        1
      ],
      "type": "VEC4"
    },
    {
      "bufferView": 0,
      "byteOffset": 150336,
      "componentType": 5125,
      "count": 2274,
      "max": [
        384
      ],
      "min": [
        0
      ],
      "type": "SCALAR"
    },
    {
      "bufferView": 2,
      "byteOffset": 440832,
      "componentType": 5126,
      "count": 192,
      "max": [
        0.088239997625350952,
        0.91706997156143188,
        1.409850001335144
      ],
      "min": [
        -0.088239997625350952,
        -0.44558998942375183,
        -0.061779998242855072
      ],
      "type": "VEC3"
    },
    {
      "bufferView": 2,
      "byteOffset": 443136,
      "componentType": 5126,
      "count": 192,
      "max": [
        0.70614016056060791,
        0.70823138952255249,
        0.70701116323471069
      ],
      "min": [
        -0.70614016056060791,
        -0.70678043365478516,
        -0.71020615100860596
      ],
      "type": "VEC3"
    },
    {
      "bufferView": 0,
      "byteOffset": 159432,
      "componentType": 5125,
      "count": 288,
      "max": [
        191
      ],
      "min": [
        0
      ],
      "type": "SCALAR"
    },
    {
      "bufferView": 2,
      "byteOffset": 445440,
      "componentType": 5126,
      "count": 192,
      "max": [
        0.088239997625350952,
        0.91706997156143188,
        1.409850001335144
      ],
      "min": [
        -0.088239997625350952,
        -0.44558998942375183,
        -0.061779998242855072
      ],
      "type": "VEC3"
    },
    {
      "bufferView": 2,
      "byteOffset": 447744,
      "componentType": 5126,
      "count": 192,
      "max": [
        0.70614016056060791,
        0.70823138952255249,
        0.70701116323471069
      ],
      "min": [
        -0.70614016056060791,
        -0.70678043365478516,
        -0.71020615100860596
      ],
      "type": "VEC3"
    },
    {
      "bufferView": 0,
      "byteOffset": 160584,
      "componentType": 5125,
      "count": 288,
      "max": [
        191
      ],
      "min": [
        0
      ],
      "type": "SCALAR"
    },
    {
      "bufferView": 2,
      "byteOffset": 450048,
      "componentType": 5126,
      "count": 4404,
      "max": [
        5.4253897666931152,
        6.0743498802185059,
        347.65267944335938
      ],
      "min": [
        -6.9060797691345215,
        -1.9622700214385986,
        -66.670066833496094
      ],
      "type": "VEC3"
    },
    {
      "bufferView": 2,
      "byteOffset": 502896,
      "componentType": 5126,
      "count": 4404,
      "max": [
        0.99997490644454956,
        0.99999260902404785,
        0.85789114236831665
      ],
      "min": [
        -0.99999737739562988,
        -0.999958336353302,
        -0.99761450290679932
      ],
      "type": "VEC3"
    },
    {
      "bufferView": 0,
      "byteOffset": 161736,
      "componentType": 5125,
      "count": 4404,
      "max": [
        4403
      ],
      "min": [
        0
      ],
      "type": "SCALAR"
    }
  ],
  "asset": {
    "extras": {
      "author": "onikoge (https://sketchfab.com/onikoge)",
      "license": "CC-BY-4.0 (http://creativecommons.org/licenses/by/4.0/)",
      "source": "https://sketchfab.com/models/6b92da28563c4e4f992bbb90d03e1805",
      "title": "bleed"
    },
    "generator": "Sketchfab-3.29.3",
    "version": "2.0"
  },
  "bufferViews": [
    {
      "buffer": 0,
      "byteLength": 179352,
      "byteOffset": 0,
      "name": "floatBufferViews",
      "target": 34963
    },
    {
      "buffer": 0,
      "byteLength": 143096,
      "byteOffset": 179352,
      "byteStride": 8,
      "name": "floatBufferViews",
      "target": 34962
    },
    {
      "buffer": 0,
      "byteLength": 555744,
      "byteOffset": 322448,
      "byteStride": 12,
      "name": "floatBufferViews",
      "target": 34962
    },
    {
      "buffer": 0,
      "byteLength": 293888,
      "byteOffset": 878192,
      "byteStride": 16,
      "name": "floatBufferViews",
      "target": 34962
    }
  ],
  "buffers": [
    {
      "byteLength": 1172080,
      "uri": "scene.bin"
    }
  ],
  "extensionsUsed": [
    "KHR_materials_unlit"
  ],
  "images": [
    {
      "uri": "textures/skin_baseColor.png"
    },
    {
      "uri": "textures/DesktopTeeth_BaseteethMaterial_baseColor.png"
    },
    {
      "uri": "textures/material_baseColor.png"
    },
    {
      "uri": "textures/material_5_baseColor.png"
    }
  ],
  "materials": [
    {
      "doubleSided": true,
      "emissiveFactor": [
        0,
        0,
        0
      ],
      "extensions": {
        "KHR_materials_unlit": {}
      },
      "name": "Root",
      "pbrMetallicRoughness": {
        "baseColorFactor": [
          0,
          0,
          0,
          1
        ],
        "metallicFactor": 0,
        "roughnessFactor": 1
      }
    },
    {
      "doubleSided": true,
      "emissiveFactor": [
        0,
        0,
        0
      ],
      "extensions": {
        "KHR_materials_unlit": {}
      },
      "name": "blood",
      "pbrMetallicRoughness": {
        "baseColorFactor": [
          0.17534715040000001,
          0,
          0,
          1
        ],
        "metallicFactor": 0,
        "roughnessFactor": 1
      }
    },
    {
      "doubleSided": true,
      "emissiveFactor": [
        0,
        0,
        0
      ],
      "extensions": {
        "KHR_materials_unlit": {}
      },
      "name": "hair",
      "pbrMetallicRoughness": {
        "metallicFactor": 0,
        "roughnessFactor": 1
      }
    },
    {
      "doubleSided": true,
      "emissiveFactor": [
        0,
        0,
        0
      ],
      "extensions": {
        "KHR_materials_unlit": {}
      },
      "name": "material_5",
      "pbrMetallicRoughness": {
        "baseColorFactor": [
          1,
          1,
          1,
          1
        ],
        "baseColorTexture": {
          "index": 3,
          "texCoord": 0
        },
        "metallicFactor": 0,
        "roughnessFactor": 1
      }
    },
    {
      "doubleSided": true,
      "emissiveFactor": [
        0,
        0,
        0
      ],
      "extensions": {
        "KHR_materials_unlit": {}
      },
      "name": "skin",
      "pbrMetallicRoughness": {
        "baseColorFactor": [
          1,
          1,
          1,
          1
        ],
        "baseColorTexture": {
          "index": 0,
          "texCoord": 0
        },
        "metallicFactor": 0,
        "roughnessFactor": 1
      }
    },
    {
      "doubleSided": true,
      "emissiveFactor": [
        0,
        0,
        0
      ],
      "extensions": {
        "KHR_materials_unlit": {}
      },
      "name": "DesktopTeeth_BaseteethMaterial",
      "pbrMetallicRoughness": {
        "baseColorFactor": [
          1,
          1,
          1,
          1
        ],
        "baseColorTexture": {
          "index": 1,
          "texCoord": 0
        },
        "metallicFactor": 0,
        "roughnessFactor": 1
      }
    },
    {
      "alphaMode": "BLEND",
      "doubleSided": true,
      "emissiveFactor": [
        0,
        0,
        0
      ],
      "extensions": {
        "KHR_materials_unlit": {}
      },
      "name": "material",
      "pbrMetallicRoughness": {
        "baseColorFactor": [
          0,
          0,
          0,
          1
        ],
        "baseColorTexture": {
          "index": 2,
          "texCoord": 0
        },
        "metallicFactor": 0,
        "roughnessFactor": 1
      }
    }
  ],
  "meshes": [
    {
      "name": "Desktop:Low-Poly",
      "primitives": [
        {
          "attributes": {
            "NORMAL": 1,
            "POSITION": 0,
            "TANGENT": 2
          },
          "indices": 3,
          "material": 2,
          "mode": 4
        }
      ]
    },
    {
      "name": "Desktop:eyelashes03",
      "primitives": [
        {
          "attributes": {
            "NORMAL": 5,
            "POSITION": 4,
            "TANGENT": 6,
            "TEXCOORD_0": 7
          },
          "indices": 8,
          "material": 6,
          "mode": 4
        }
      ]
    },
    {
      "name": "Desktop:Teeth_Base",
      "primitives": [
        {
          "attributes": {
            "NORMAL": 10,
            "POSITION": 9,
            "TANGENT": 11,
            "TEXCOORD_0": 12
          },
          "indices": 13,
          "material": 5,
          "mode": 4
        }
      ]
    },
    {
      "name": "Desktop:Body.000",
      "primitives": [
        {
          "attributes": {
            "NORMAL": 15,
            "POSITION": 14,
            "TANGENT": 16,
            "TEXCOORD_0": 17
          },
          "indices": 18,
          "material": 4,
          "mode": 4
        }
      ]
    },
    {
      "name": "Plane",
      "primitives": [
        {
          "attributes": {
            "NORMAL": 20,
            "POSITION": 19,
            "TANGENT": 21,
            "TEXCOORD_0": 22
          },
          "indices": 23,
          "material": 3,
          "mode": 4
        }
      ]
    },
    {
      "name": "Desktop:Body.002",
      "primitives": [
        {
          "attributes": {
            "NORMAL": 25,
            "POSITION": 24,
            "TANGENT": 26
          },
          "indices": 27,
          "material": 2,
          "mode": 4
        }
      ]
    },
    {
      "name": "BezierCurve",
      "primitives": [
        {
          "attributes": {
            "NORMAL": 29,
            "POSITION": 28
          },
          "indices": 30,
          "material": 0,
          "mode": 4
        }
      ]
    },
    {
      "name": "BezierCurve.001",
      "primitives": [
        {
          "attributes": {
            "NORMAL": 32,
            "POSITION": 31
          },
          "indices": 33,
          "material": 0,
          "mode": 4
        }
      ]
    },
    {
      "name": "Cube",
      "primitives": [
        {
          "attributes": {
            "NORMAL": 35,
            "POSITION": 34
          },
          "indices": 36,
          "material": 1,
          "mode": 4
        }
      ]
    }
  ],
  "nodes": [
    {
      "children": [
        1
      ],
      "name": "RootNode (gltf orientation matrix)",
      "rotation": [
        -0.70710678118654746,
        -0,
        -0,
        0.70710678118654757
      ]
    },
    {
      "children": [
        2
      ],
      "name": "RootNode (model correction matrix)"
    },
    {
      "children": [
        3,
        5,
        7,
        9,
        11,
        13,
        15,
        17,
        19,
        21
      ],
      "name": "Root"
    },
    {
      "children": [
        4
      ],
      "matrix": [
        0.96407000000000009,
        0,
        0,
        0,
        0,
        0.96407000000000009,
        0,
        0,
        0,
        0,
        0.96407000000000009,
        0,
        -0.056000000000000008,
        -6.2565600000000003,
        4.2641199999999992,
        1
      ],
      "name": "Desktop:Low-Poly"
    },
    {
      "mesh": 0,
      "name": "Desktop:Low-Poly"
    },
    {
      "children": [
        6
      ],
      "matrix": [
        1,
        0,
        0,
        0,
        0,
        1,
        0,
        0,
        0,
        0,
        1,
        0,
        0,
        0,
        -0.065180000000000016,
        1
      ],
      "name": "Desktop:eyelashes03"
    },
    {
      "mesh": 1,
      "name": "Desktop:eyelashes03"
    },
    {
      "children": [
        8
      ],
      "matrix": [
        1,
        0,
        -0,
        0,
        -0,
        0.99660000000000004,
        -0.082360000000000017,
        0,
        0,
        0.082360000000000017,
        0.99660000000000004,
        0,
        -0.05476000000000001,
        -6.276390000000001,
        3.65787,
        1
      ],
      "name": "Desktop:Teeth_Base"
    },
    {
      "mesh": 2,
      "name": "Desktop:Teeth_Base"
    },
    {
      "children": [
        10
      ],
      "name": "Desktop:Body.000"
    },
    {
      "mesh": 3,
      "name": "Desktop:Body.000"
    },
    {
      "children": [
        12
      ],
      "matrix": [
        2.5659999999999998,
        0,
        0,
        0,
        0,
        2.5659999999999998,
        0,
        0,
        0,
        0,
        2.5659999999999998,
        0,
        0,
        -0.95569000000000015,
        0.063970000000000013,
        1
      ],
      "name": "Plane"
    },
    {
      "mesh": 4,
      "name": "Plane"
    },
    {
      "children": [
        14
      ],
      "matrix": [
        0.99997999999999998,
        0.0060800000000000021,
        0.0024400000000000008,
        0,
        -0.0064900000000000018,
        0.96922000000000008,
        0.24610000000000001,
        0,
        -0.00087000000000000033,
        -0.24611000000000002,
        0.9692400000000001,
        0,
        -0.065880000000000008,
        -10.79659,
        11.0444,
        1
      ],
      "name": "Area"
    },
    {
      "name": "Area"
    },
    {
      "children": [
        16
      ],
      "name": "Desktop:Body.002"
    },
    {
      "mesh": 5,
      "name": "Desktop:Body.002"
    },
    {
      "children": [
        18
      ],
      "matrix": [
        0.98533999999999999,
        0.1706,
        0,
        0,
        -0.1706,
        0.98533999999999999,
        0,
        0,
        0,
        0,
        1,
        0,
        0.31039000000000005,
        -6.9815900000000006,
        4.4926400000000006,
        1
      ],
      "name": "BezierCurve"
    },
    {
      "mesh": 6,
      "name": "BezierCurve"
    },
    {
      "children": [
        20
      ],
      "matrix": [
        0.98346999999999996,
        -0.18106000000000003,
        0,
        0,
        0.18106000000000003,
        0.98346999999999996,
        0,
        0,
        0,
        0,
        1,
        0,
        -0.44392000000000009,
        -6.9809799999999997,
        4.4926400000000006,
        1
      ],
      "name": "BezierCurve.001"
    },
    {
      "mesh": 7,
      "name": "BezierCurve.001"
    },
    {
      "children": [
        22
      ],
      "matrix": [
        0.021420000000000005,
        0,
        0,
        0,
        0,
        0.021420000000000005,
        0,
        0,
        0,
        0,
        0.021420000000000005,
        0,
        -0.047750000000000008,
        -6.8190999999999997,
        3.8357999999999994,
        1
      ],
      "name": "Cube"
    },
    {
      "mesh": 8,
      "name": "Cube"
    }
  ],
  "samplers": [
    {
      "magFilter": 9729,
      "minFilter": 9987,
      "wrapS": 10497,
      "wrapT": 10497
    }
  ],
  "scene": 0,
  "scenes": [
    {
      "name": "OSG_Scene",
      "nodes": [
        0
      ]
    }
  ],
  "textures": [
    {
      "sampler": 0,
      "source": 0
    },
    {
      "sampler": 0,
      "source": 1
    },
    {
      "sampler": 0,
      "source": 2
    },
    {
      "sampler": 0,
      "source": 3
    }
  ]
}

